<svg xmlns="http://www.w3.org/2000/svg" width="74" height="121" fill="none" viewBox="0 0 74 121"><circle cx="36.962" cy="34.597" r="11.532" fill="#5C59FE"/><circle cx="55.887" cy="15.672" r="7.392" fill="#5C59FE"/><circle cx="36.962" cy="5.618" r="5.618" fill="#5C59FE"/><path fill="#5C59FE" fill-rule="evenodd" d="M8.15513 60.332L9.13472 59.1206L8.06009 57.9926C7.44192 57.3437 6.84548 56.674 6.27186 55.9843C4.60306 53.978 5.2552 50.8118 7.88784 49.2919C10.3673 47.8603 13.7931 48.6695 16.1853 51.0796C18.0056 52.9134 20.0684 54.5061 22.3253 55.8092C26.7756 58.3785 31.8237 59.7312 36.9624 59.7312C42.1011 59.7312 47.1493 58.3785 51.5995 55.8092C53.8564 54.5061 55.9193 52.9134 57.7395 51.0796C60.1317 48.6695 63.5575 47.8603 66.037 49.2919C68.6696 50.8118 69.3218 53.978 67.653 55.9843C66.9842 56.7884 66.2844 57.5655 65.5553 58.3138L64.4681 59.4297L65.4341 60.652C69.0187 65.1877 71.4931 70.5241 72.6288 76.2338C74.0436 83.3464 73.3175 90.7188 70.5423 97.4188C69.3435 100.313 67.7856 103.025 65.9166 105.498L65.5577 105.973V117.015C65.5577 118.448 64.3959 119.61 62.9627 119.61C62.1459 119.61 61.3768 119.226 60.8867 118.572L57.2749 113.758L55.8965 114.607C50.1224 118.163 43.4661 120.054 36.6667 120.054C30.0074 120.054 23.4853 118.24 17.7948 114.824L16.4149 113.996L13.0928 118.477C12.5646 119.19 11.73 119.61 10.843 119.61C9.29635 119.61 8.04252 118.356 8.04252 116.81V106.31L7.67133 105.831C5.68885 103.269 4.0439 100.443 2.7911 97.4188C0.0158851 90.7188 -0.710235 83.3464 0.704558 76.2338C1.8671 70.3893 4.43229 64.9359 8.15513 60.332ZM56.6824 66.759L55.7902 65.6851L54.5366 66.2998C49.0771 68.9766 43.0666 70.3763 36.9624 70.3763C30.709 70.3763 24.5539 68.9074 18.9888 66.1011L17.7422 65.4725L16.8381 66.5364C13.9766 69.9036 12.0118 73.9539 11.1452 78.3105C10.1411 83.3582 10.6564 88.5903 12.6259 93.3451C14.5954 98.0999 17.9307 102.164 22.2099 105.023C26.4891 107.882 31.5201 109.409 36.6667 109.409C41.8132 109.409 46.8442 107.882 51.1235 105.023C55.4027 102.164 58.7379 98.0999 60.7074 93.3451C62.6769 88.5903 63.1922 83.3582 62.1882 78.3105C61.3406 74.0495 59.4425 70.0815 56.6824 66.759Z" clip-rule="evenodd"/></svg>