<?xml version="1.0" standalone="no"?>
<!DOCTYPE svg PUBLIC "-//W3C//DTD SVG 20010904//EN"
 "http://www.w3.org/TR/2001/REC-SVG-20010904/DTD/svg10.dtd">
<svg version="1.0" xmlns="http://www.w3.org/2000/svg"
 width="968.000000pt" height="968.000000pt" viewBox="0 0 968.000000 968.000000"
 preserveAspectRatio="xMidYMid meet">
<metadata>
Created by potrace 1.11, written by Peter Selinger 2001-2013
</metadata>
<g transform="translate(0.000000,968.000000) scale(0.100000,-0.100000)"
fill="#000000" stroke="none">
<path d="M4721 9664 c-267 -72 -407 -371 -290 -621 55 -117 156 -203 289 -247
105 -33 293 0 377 68 125 99 192 234 188 376 -3 79 -12 116 -47 189 -89 187
-314 290 -517 235z"/>
<path d="M6288 9015 c-2 -1 -21 -5 -43 -9 -169 -24 -341 -151 -418 -310 -19
-39 -38 -84 -42 -101 -5 -16 -10 -37 -12 -45 -12 -39 -10 -201 3 -259 27 -130
124 -270 239 -350 63 -43 181 -94 196 -85 5 3 9 1 9 -3 0 -18 189 -20 260 -3
77 18 175 64 229 107 43 34 62 53 113 112 35 41 95 168 103 219 5 26 10 54 12
62 15 68 -2 199 -37 293 -67 179 -252 334 -435 363 -38 6 -172 13 -177 9z"/>
<path d="M4777 7834 c-1 -1 -27 -4 -57 -8 -70 -7 -88 -11 -144 -30 -26 -9 -53
-16 -61 -16 -8 0 -15 -5 -15 -12 0 -6 -3 -8 -6 -5 -6 6 -140 -58 -154 -73 -3
-3 -25 -19 -49 -35 -46 -31 -191 -172 -191 -186 0 -4 -6 -14 -12 -21 -36 -39
-88 -139 -119 -228 -97 -281 -63 -566 96 -810 23 -36 66 -91 95 -123 52 -57
203 -177 224 -177 6 0 22 -9 36 -20 14 -11 30 -20 36 -20 6 0 29 -8 50 -17 22
-9 44 -18 49 -19 6 -2 19 -5 30 -8 164 -43 352 -45 495 -4 127 37 265 108 336
173 151 139 208 216 277 375 15 33 31 82 29 87 0 2 4 17 9 35 6 18 14 51 17
73 8 52 7 261 -1 300 -21 94 -26 114 -42 160 -21 63 -88 187 -129 240 -66 85
-189 197 -256 234 -130 70 -241 111 -344 126 -40 6 -194 13 -199 9z"/>
<path d="M2685 5789 c-33 -3 -78 -12 -100 -19 -89 -28 -192 -115 -235 -201
-30 -59 -33 -74 -34 -169 -1 -120 22 -161 204 -353 41 -43 78 -85 82 -91 4 -7
-5 -26 -22 -45 -16 -17 -42 -48 -57 -69 -15 -20 -30 -39 -33 -42 -3 -3 -22
-27 -41 -55 -79 -110 -109 -155 -109 -164 0 -5 -4 -11 -8 -13 -11 -4 -89 -143
-149 -263 -44 -88 -123 -275 -138 -325 -1 -3 -13 -42 -28 -87 -15 -46 -29 -93
-31 -105 -3 -13 -9 -38 -15 -57 -12 -40 -47 -208 -56 -269 -25 -173 -29 -236
-29 -447 -1 -187 5 -295 19 -390 28 -183 41 -247 67 -345 11 -41 21 -79 22
-85 1 -5 17 -55 36 -110 19 -55 35 -102 35 -105 1 -3 9 -23 19 -45 10 -22 27
-62 37 -90 21 -51 74 -158 137 -275 39 -73 146 -237 218 -334 l48 -65 1 -443
c1 -471 1 -470 51 -536 48 -62 150 -95 230 -73 71 19 104 55 318 349 17 23 40
53 51 67 l20 24 85 -51 c124 -73 271 -149 385 -197 113 -49 325 -123 325 -114
0 3 7 0 15 -7 8 -7 15 -10 15 -7 0 4 19 -1 42 -9 23 -8 55 -17 72 -20 17 -3
51 -10 76 -15 25 -6 56 -12 70 -14 14 -2 41 -6 60 -10 149 -26 280 -37 475
-37 160 0 298 9 410 27 41 6 225 41 260 49 98 21 329 93 378 118 20 10 37 16
37 13 0 -3 17 4 37 15 21 11 42 20 47 20 15 0 256 124 332 170 124 77 154 92
154 79 0 -6 6 -17 14 -23 7 -6 73 -91 147 -189 166 -221 149 -201 179 -217 51
-28 142 -35 184 -13 46 24 96 64 96 77 0 7 5 17 12 24 6 6 14 20 16 29 2 10 5
227 6 483 l1 465 30 40 c16 22 32 42 35 45 3 3 19 25 35 50 16 25 32 47 35 50
8 8 29 43 37 60 3 8 16 28 27 45 76 108 239 465 283 620 31 108 74 270 78 299
3 17 8 38 10 46 3 8 7 31 9 50 3 19 7 49 10 65 6 40 16 116 22 179 9 87 11
389 3 423 -4 18 -3 36 2 39 5 3 6 10 3 16 -6 9 -10 36 -19 123 -22 226 -93
505 -191 747 -41 103 -152 337 -164 348 -3 3 -19 28 -34 55 -40 69 -148 229
-158 233 -4 2 -8 8 -8 13 0 5 -7 17 -15 26 -8 10 -37 47 -65 82 -58 72 -61 57
38 160 184 191 229 261 237 370 9 138 -88 292 -227 359 -133 64 -275 60 -435
-13 -84 -38 -139 -79 -243 -178 -42 -40 -95 -88 -119 -107 -23 -19 -48 -40
-54 -45 -28 -25 -185 -135 -192 -135 -5 0 -16 -6 -24 -14 -30 -26 -218 -125
-321 -169 -49 -20 -177 -68 -193 -71 -6 -2 -19 -5 -27 -8 -96 -35 -317 -81
-465 -96 -91 -9 -369 -8 -465 2 -446 46 -884 227 -1230 507 -52 42 -123 103
-156 136 -158 150 -271 213 -408 229 -28 4 -53 7 -56 8 -3 1 -32 -1 -65 -5z
m738 -1408 c222 -108 428 -183 677 -246 20 -5 89 -18 107 -20 11 -2 29 -6 40
-9 10 -3 50 -10 88 -16 39 -5 80 -12 92 -14 134 -27 609 -28 813 -1 14 2 48 6
75 10 28 3 58 8 67 11 21 6 53 12 102 20 22 3 47 9 56 14 8 4 17 8 20 7 10 -1
86 14 115 23 200 62 363 122 500 185 39 17 73 33 77 34 4 1 26 12 50 25 l42
22 81 -101 c44 -56 87 -112 95 -125 8 -12 23 -33 33 -45 9 -13 17 -27 17 -31
0 -4 6 -15 14 -23 8 -9 26 -38 40 -66 15 -27 31 -57 36 -65 16 -26 79 -167 95
-212 73 -199 113 -373 132 -563 9 -92 3 -435 -7 -435 -3 0 -6 -12 -7 -27 -2
-43 -10 -93 -23 -148 -6 -27 -14 -61 -16 -75 -3 -14 -14 -56 -26 -95 -12 -38
-23 -72 -23 -75 -1 -3 -7 -18 -13 -33 -7 -16 -12 -33 -12 -38 0 -5 -4 -17 -9
-27 -5 -9 -37 -75 -71 -147 -34 -71 -73 -145 -87 -162 -13 -18 -20 -33 -16
-33 4 0 3 -4 -3 -8 -5 -4 -20 -24 -33 -45 -13 -21 -28 -43 -34 -50 -7 -6 -31
-37 -54 -67 -236 -312 -590 -562 -976 -692 -65 -22 -126 -41 -135 -43 -9 -2
-46 -10 -82 -18 -36 -9 -85 -18 -110 -21 -25 -3 -56 -8 -70 -11 -64 -14 -369
-21 -445 -10 -16 2 -55 6 -85 10 -30 3 -100 15 -155 27 -121 25 -116 24 -135
31 -8 3 -46 15 -85 27 -101 30 -165 57 -295 122 -113 56 -272 153 -278 169 -2
5 -9 9 -15 9 -7 0 -28 14 -47 31 -19 17 -57 49 -85 72 -65 55 -210 204 -260
268 -22 28 -46 57 -52 64 -7 7 -13 18 -13 23 0 6 -3 12 -8 14 -4 2 -25 30 -47
63 -21 33 -42 61 -47 63 -4 2 -8 10 -8 18 0 8 -12 33 -26 56 -30 48 -91 176
-121 258 -12 30 -25 64 -29 75 -8 23 -7 17 -24 75 -16 53 -17 58 -24 85 -20
87 -28 124 -32 150 -2 17 -6 41 -9 54 -26 134 -26 444 0 621 23 148 59 285
118 440 27 73 117 260 147 305 11 17 27 45 37 63 9 17 20 32 25 32 4 0 8 5 8
11 0 9 43 72 60 89 3 3 18 23 35 45 16 21 36 46 45 55 8 9 26 30 40 48 14 17
26 32 28 32 2 0 58 -27 125 -59z"/>
</g>
</svg>
